# xmcd
#
# Track frame offsets:
#	150
#	10727
#	33175
#	50160
#	72902
#	97425
#	106425
#	125245
#
# Disc length: 1907 seconds
#
# Revision: 1
# Processed by: cddbd v1.5.1PL0 Copyright (c) Steve Scherf et al.
# Submitted via: audiograbber 1.82.02
#
DISCID=74077108
DTITLE=Gapeseed - Lo Cell
DYEAR=1994
DGENRE=Satire
TTITLE0=Thirsty
TTITLE1=Grifting Ballistic
TTITLE2=From The Cusp
TTITLE3=Watermelon Bread
TTITLE4=Anisette
TTITLE5=1:59
TTITLE6=Lazarus Sparkplug
TTITLE7=Magister Dixit
EXTD=
EXTT0=
EXTT1=
EXTT2=
EXTT3=
EXTT4=
EXTT5=
EXTT6=
EXTT7=
PLAYORDER=
